<?xml version="1.0" standalone="no"?>
<!DOCTYPE svg PUBLIC "-//W3C//DTD SVG 20010904//EN"
 "http://www.w3.org/TR/2001/REC-SVG-20010904/DTD/svg10.dtd">
<svg version="1.0" xmlns="http://www.w3.org/2000/svg"
 width="1920.000000pt" height="1920.000000pt" viewBox="0 0 1920.000000 1920.000000"
 preserveAspectRatio="xMidYMid meet">

<g transform="translate(0.000000,1920.000000) scale(0.100000,-0.100000)"
fill="#000000" stroke="none">
<path d="M13610 16335 c-158 -46 -230 -72 -410 -150 -85 -37 -168 -79 -185
-95 -16 -16 -50 -34 -75 -40 -65 -17 -170 -74 -230 -126 l-53 -45 2 -64 c3
-92 -27 -142 -179 -295 -80 -80 -170 -133 -225 -132 -45 1 -90 -33 -150 -113
-47 -64 -61 -76 -110 -94 -31 -12 -62 -21 -70 -21 -30 0 -186 -60 -250 -95
-36 -21 -98 -62 -138 -93 -72 -56 -72 -56 -157 -62 -96 -6 -135 -25 -226 -110
-63 -60 -210 -132 -324 -160 -129 -31 -204 -72 -283 -153 l-67 -70 -95 -7
c-112 -9 -176 -39 -199 -94 -16 -39 -78 -82 -206 -146 -47 -23 -94 -50 -105
-60 -17 -15 -29 -17 -70 -10 -70 11 -112 -6 -235 -96 -25 -18 -110 -78 -189
-134 -132 -91 -149 -100 -190 -100 -28 0 -59 -8 -79 -20 -18 -11 -37 -20 -42
-20 -5 0 -40 42 -78 93 -246 325 -701 785 -990 1002 -198 148 -252 181 -333
200 -100 24 -124 37 -199 110 -45 44 -92 77 -155 108 -154 77 -160 79 -380 88
-232 11 -293 24 -451 99 -126 59 -255 94 -344 93 -109 -1 -266 -31 -280 -54
-5 -7 -13 -8 -21 -3 -8 5 -142 12 -299 15 -325 8 -582 34 -968 99 -130 23
-282 43 -337 47 l-100 5 -91 59 c-50 32 -126 72 -170 89 -43 16 -87 35 -96 40
-12 6 -40 2 -95 -14 -43 -13 -114 -31 -157 -41 -111 -24 -162 -48 -180 -84
-24 -46 -20 -76 15 -105 54 -46 156 -29 248 41 l34 26 54 -18 c77 -26 86 -35
74 -67 -11 -28 -81 -85 -139 -113 -18 -9 -61 -21 -95 -26 -34 -6 -75 -17 -92
-26 -116 -60 -155 -76 -246 -102 -57 -17 -123 -40 -146 -51 -87 -42 -288 -16
-372 48 -34 26 -50 32 -70 27 -37 -9 -61 -34 -61 -62 0 -28 26 -83 40 -83 5 0
17 -14 25 -31 11 -20 35 -39 73 -58 31 -15 68 -34 82 -43 14 -9 70 -29 125
-43 55 -15 108 -29 117 -32 10 -3 20 -13 23 -23 3 -9 18 -23 33 -29 39 -18
222 -24 409 -13 194 11 195 11 343 162 99 101 144 139 247 208 62 42 62 42
157 42 60 0 173 -13 308 -34 117 -19 256 -39 308 -45 52 -6 133 -17 180 -26
93 -17 271 -40 420 -55 114 -11 130 -23 130 -104 l0 -51 97 6 c54 3 154 13
222 22 132 17 156 15 263 -23 38 -13 96 -22 175 -26 125 -7 159 -17 192 -60
20 -25 24 -26 84 -21 47 5 74 2 112 -13 28 -10 69 -24 93 -31 23 -7 47 -18 53
-25 14 -17 -8 -22 -136 -27 -83 -3 -120 -11 -215 -43 -81 -28 -116 -44 -118
-56 -3 -16 4 -17 64 -11 50 5 65 3 60 -5 -4 -7 -11 -12 -16 -12 -5 0 -45 -24
-89 -52 -44 -29 -100 -65 -125 -79 -27 -17 -54 -45 -72 -74 -29 -50 -64 -177
-64 -235 0 -38 -39 -142 -95 -255 -37 -74 -57 -165 -36 -165 7 0 20 14 29 31
9 18 27 43 39 58 18 20 15 10 -12 -45 -43 -89 -65 -178 -65 -269 0 -83 12
-130 44 -177 14 -21 26 -57 30 -94 13 -119 67 -306 84 -290 3 4 9 87 13 184 4
105 13 195 21 222 l14 45 7 -92 c8 -105 48 -244 107 -368 41 -86 94 -165 110
-165 6 0 10 30 11 68 1 71 15 186 18 140 0 -15 10 -51 21 -80 15 -42 28 -57
57 -73 67 -36 92 -90 133 -294 11 -57 29 -120 39 -139 l18 -35 7 33 c3 18 11
87 17 153 6 65 14 140 18 165 l8 47 12 -42 c6 -24 15 -43 19 -43 4 0 7 -48 8
-108 0 -98 3 -115 35 -196 20 -53 42 -93 54 -100 11 -6 23 -15 27 -21 5 -7 8
-7 8 0 1 6 3 71 6 145 3 86 10 153 21 185 16 50 42 99 50 92 2 -2 -6 -44 -18
-93 -33 -137 -25 -190 49 -336 69 -134 62 -138 82 42 16 141 26 172 80 232 26
29 54 67 63 83 l16 30 0 -45 c1 -25 -10 -81 -24 -125 -14 -44 -25 -102 -25
-130 0 -91 74 -210 153 -243 32 -14 33 -9 12 62 -31 102 -15 258 37 360 l20
39 21 -64 c20 -58 101 -177 128 -187 17 -7 9 42 -26 151 -20 60 -34 114 -33
119 7 20 87 -152 99 -211 11 -59 32 -92 47 -77 13 13 6 199 -10 264 -9 34 -14
62 -13 62 11 0 59 -106 74 -160 l18 -65 15 30 c9 17 26 63 38 104 29 95 23
188 -25 344 -18 61 -32 113 -30 116 2 2 48 -18 103 -43 95 -45 132 -55 132
-38 0 10 -156 84 -211 101 -44 14 -70 63 -74 139 l-2 52 59 0 c47 0 72 7 126
34 120 60 241 106 314 118 61 11 77 18 119 56 34 31 49 51 51 74 5 52 25 44
33 -13 7 -51 6 -53 -29 -86 -56 -53 -46 -56 21 -7 17 13 38 24 45 24 17 0 137
-53 138 -61 0 -3 -28 -23 -62 -45 -35 -21 -85 -59 -113 -84 -73 -68 -202 -163
-265 -196 -70 -37 -207 -173 -244 -243 -34 -64 -46 -171 -26 -223 22 -54 130
-229 175 -283 23 -27 64 -84 90 -125 26 -41 59 -88 72 -104 33 -39 68 -111 95
-193 13 -38 46 -103 77 -148 75 -110 109 -207 146 -425 9 -52 21 -122 27 -155
13 -76 -6 -303 -27 -319 -8 -6 -19 -24 -25 -39 -15 -42 -50 -245 -50 -294 0
-37 -13 -141 -26 -208 -2 -11 -38 -58 -79 -105 -84 -94 -155 -221 -180 -318
-11 -41 -14 -87 -11 -139 l5 -78 50 0 c71 1 98 19 136 95 41 82 63 101 119
107 56 7 93 -14 159 -91 53 -62 88 -84 150 -94 l42 -7 3 -74 c3 -79 -11 -129
-58 -211 -15 -25 -34 -66 -44 -91 -26 -69 -15 -82 86 -104 99 -21 191 -16 262
15 39 18 53 20 72 11 23 -10 24 -16 24 -101 0 -106 -47 -394 -86 -532 -19 -65
-27 -118 -28 -178 -1 -75 2 -91 27 -137 15 -29 27 -63 27 -75 0 -13 -16 -66
-35 -118 -54 -144 -83 -290 -105 -536 -9 -97 -11 -105 -83 -250 -41 -82 -82
-178 -91 -214 -15 -59 -32 -232 -39 -385 -2 -54 -4 -60 -25 -63 -30 -5 -66
-55 -90 -127 -15 -45 -22 -102 -27 -225 -7 -161 -7 -167 19 -245 15 -44 43
-112 62 -150 19 -39 34 -79 34 -89 0 -23 -78 -256 -91 -272 -11 -13 10 -24 43
-24 14 0 18 -5 14 -15 -3 -8 -8 -132 -12 -275 -4 -153 -12 -269 -18 -282 -6
-12 -38 -40 -71 -62 -43 -29 -66 -54 -82 -86 -30 -61 -47 -177 -40 -286 4 -79
10 -101 41 -163 50 -99 92 -229 110 -338 13 -82 20 -100 65 -166 36 -53 52
-90 60 -132 14 -76 31 -99 91 -130 58 -29 68 -30 90 -10 13 12 23 13 44 5 38
-14 79 -13 101 4 14 10 26 11 44 5 32 -13 163 0 176 17 8 11 19 11 52 3 23 -6
54 -8 69 -5 39 10 80 56 88 99 8 44 -5 67 -38 67 -27 0 -60 30 -82 73 -9 18
-27 41 -39 52 -13 11 -31 45 -41 75 -9 30 -42 109 -72 175 -69 153 -159 367
-177 423 -36 111 -55 480 -35 667 6 50 13 124 16 166 l7 77 49 4 c53 6 70 15
50 27 -10 6 -10 17 4 52 18 49 59 204 69 262 5 29 14 43 43 61 55 35 186 177
241 261 66 101 143 254 176 349 26 77 52 257 40 277 -4 5 25 62 63 127 95 159
166 314 201 441 15 56 20 102 20 215 l0 144 47 71 47 71 66 0 c49 0 75 5 100
21 50 30 387 365 502 499 78 90 99 121 99 145 0 16 10 50 21 75 59 129 89 243
89 338 l0 71 79 113 c137 196 413 512 635 728 88 85 213 207 278 270 130 126
129 124 148 270 6 40 14 78 20 84 14 14 170 45 265 53 l80 6 60 61 c76 78 186
277 249 450 5 14 13 17 39 12 17 -3 78 -9 133 -12 135 -9 159 3 286 139 l96
103 89 20 c94 20 262 25 383 10 90 -11 108 -9 141 15 19 13 41 19 61 17 31 -3
33 -5 30 -40 -2 -20 3 -49 11 -65 14 -26 23 -30 119 -45 437 -73 539 -88 588
-88 l57 0 9 43 c9 39 13 44 76 75 58 29 70 40 90 81 l23 48 85 7 c115 10 175
24 194 45 18 20 -12 30 391 -129 94 -37 203 -75 242 -84 102 -23 171 -50 242
-96 54 -35 65 -48 96 -113 40 -84 58 -103 112 -123 59 -21 85 -17 151 24 216
131 446 382 572 627 30 58 79 138 109 178 69 90 101 184 103 300 1 69 7 96 36
167 47 115 62 173 62 248 0 106 -24 132 -121 132 -46 0 -47 0 -68 -50 -12 -27
-24 -64 -28 -82 -7 -38 -42 -80 -95 -114 -31 -20 -91 -89 -122 -141 -15 -26
16 -12 45 20 l30 32 -11 -28 c-10 -29 -6 -47 10 -47 5 0 16 21 24 48 16 46 64
127 72 120 2 -2 -10 -39 -27 -82 -49 -127 -19 -112 41 21 30 65 62 124 72 132
29 22 78 97 78 120 0 14 6 21 18 21 75 0 69 -182 -9 -350 -24 -51 -33 -86 -39
-165 -12 -138 -32 -196 -100 -290 -32 -44 -84 -127 -115 -185 -32 -58 -73
-127 -93 -155 -73 -100 -181 -231 -233 -282 -67 -64 -275 -213 -298 -213 -9 0
-37 10 -61 23 -36 18 -51 35 -80 89 -20 37 -45 77 -56 89 -41 47 -136 98 -251
134 -65 21 -179 63 -253 93 -74 30 -176 70 -227 88 -50 18 -108 40 -128 48
l-37 16 55 60 c31 33 68 82 84 109 15 27 44 72 63 101 34 49 37 51 73 46 47
-5 185 -71 265 -124 103 -71 216 -105 405 -122 122 -12 167 -5 107 15 l-33 11
79 49 c115 71 257 174 352 255 103 89 177 186 126 166 -14 -5 -15 -1 -9 31 9
55 40 115 86 167 26 29 35 46 26 46 -22 0 -86 -75 -113 -134 -14 -30 -24 -70
-24 -97 0 -44 -4 -50 -63 -108 -81 -79 -186 -159 -364 -278 l-142 -96 -108 16
c-141 20 -237 54 -331 116 -91 59 -208 111 -252 111 -30 0 -31 1 -24 38 4 20
8 39 10 41 6 7 -70 63 -106 79 -21 9 -80 17 -152 20 l-118 5 -29 76 c-15 42
-31 105 -35 140 -3 36 -13 72 -22 82 -38 42 -164 50 -319 20 -55 -11 -129 -22
-165 -26 l-65 -6 -29 47 c-37 59 -96 96 -194 123 -43 11 -129 48 -192 82
l-115 61 -80 -4 c-79 -3 -81 -2 -130 33 -66 48 -246 144 -320 169 -40 14 -82
20 -139 19 -191 -1 -244 0 -290 6 -43 6 -56 3 -120 -28 -185 -92 -205 -98
-276 -91 -80 8 -110 -4 -221 -81 -126 -88 -174 -113 -241 -126 -167 -31 -226
-64 -307 -173 -56 -75 -74 -90 -181 -149 -36 -19 -76 -47 -89 -61 -20 -21 -34
-26 -72 -26 -66 0 -244 -36 -274 -56 -13 -9 -49 -46 -79 -82 -83 -101 -142
-154 -236 -210 -47 -28 -94 -60 -104 -71 -10 -11 -39 -28 -65 -37 -25 -9 -83
-32 -129 -52 -46 -19 -84 -33 -86 -31 -1 2 -20 27 -43 54 -64 80 -68 90 -73
220 -5 106 -9 127 -34 177 -30 60 -175 223 -218 247 -20 10 -31 30 -47 87 -25
85 -109 268 -154 334 -67 97 -321 328 -432 392 -38 22 -121 72 -183 111 -129
81 -130 80 8 112 202 46 225 59 346 188 44 47 93 93 109 103 17 10 43 29 59
42 52 42 143 81 237 102 131 28 252 90 369 188 68 57 117 88 173 112 42 17 89
45 105 62 43 47 101 75 187 93 126 25 203 81 225 164 18 69 45 85 265 156 205
67 257 91 327 155 32 28 83 67 114 85 l57 35 -2 68 -2 68 78 55 c98 70 148 96
303 159 69 29 168 75 220 105 111 62 209 105 301 133 36 11 81 31 101 44 31
21 182 74 351 123 34 10 74 30 95 49 20 18 45 36 56 39 14 6 17 15 14 41 -4
33 -2 34 35 39 22 3 65 18 97 34 56 28 57 28 101 11 65 -25 173 -24 215 3 31
19 34 25 34 68 0 34 -5 53 -19 65 -26 23 -156 46 -269 46 -67 0 -92 3 -82 10
34 22 173 71 179 62 3 -5 40 -12 81 -15 41 -4 100 -14 130 -22 90 -24 136 -20
171 15 48 47 38 71 -41 96 -68 23 -217 59 -285 70 -91 15 -63 23 75 24 126 0
149 3 177 20 39 23 57 54 49 86 -11 41 -53 54 -181 54 l-115 0 0 43 c0 24 -5
48 -12 55 -24 24 -164 13 -288 -23z m272 -34 l-4 -28 -96 -7 c-185 -13 -267
-24 -312 -40 -58 -22 -220 -104 -242 -123 -17 -15 -64 -11 -98 7 -12 7 -12 10
5 16 11 4 72 29 135 57 171 74 399 145 531 165 65 10 88 -3 81 -47z m192 -85
c-7 -19 37 -32 63 -18 19 11 17 13 -32 26 -11 3 -2 3 19 1 43 -5 56 -17 49
-47 -10 -36 -54 -48 -180 -48 -65 0 -138 -5 -163 -11 -25 -6 -77 -11 -117 -10
-69 0 -252 -42 -305 -70 -14 -8 -25 -5 -46 9 -15 10 -47 24 -72 32 -25 7 -38
15 -30 17 8 3 62 27 120 54 156 72 180 76 457 78 213 2 242 0 237 -13z m-409
-145 c-6 -5 -59 -26 -118 -46 -81 -29 -111 -35 -119 -27 -7 7 -10 14 -7 16 2
2 49 18 104 34 101 30 157 40 140 23z m235 -31 c150 -29 206 -47 234 -75 27
-27 52 -32 59 -12 2 6 7 9 11 6 12 -11 -6 -39 -25 -39 -11 0 -52 9 -91 20 -40
11 -87 20 -105 20 -17 0 -53 5 -80 11 -45 11 -54 9 -143 -25 -52 -21 -132 -58
-178 -82 -46 -25 -85 -44 -87 -42 -1 1 -12 33 -23 69 l-19 66 46 16 c25 8 91
31 146 51 55 19 111 36 125 36 14 0 72 -9 130 -20z m-1007 -77 c-17 -21 -35
-48 -42 -60 -10 -20 -19 -23 -74 -23 l-62 1 39 35 c37 32 156 96 165 88 2 -2
-10 -20 -26 -41z m970 -165 c17 -40 43 -64 77 -72 22 -5 62 8 50 16 -3 2 -23
12 -44 23 -49 25 -61 49 -19 40 54 -12 73 -27 73 -56 0 -18 -7 -32 -21 -39
-26 -14 -128 -9 -191 10 -45 13 -49 13 -115 -18 -38 -18 -83 -32 -99 -32 -26
0 -31 5 -49 58 l-21 58 26 -4 c14 -2 50 8 80 21 45 21 71 26 147 26 l93 1 13
-32z m-10093 -7 c0 -4 37 -23 83 -41 45 -17 109 -49 142 -70 123 -77 159 -90
268 -100 56 -5 183 -22 282 -39 420 -70 663 -93 1000 -96 256 -2 325 -7 325
-25 0 -11 -53 -84 -125 -173 -33 -41 -64 -81 -70 -90 -9 -16 -16 -15 -82 2
-40 10 -105 22 -145 26 -158 14 -337 36 -408 49 -41 8 -122 20 -180 26 -58 7
-201 27 -318 46 -142 23 -248 34 -316 34 l-102 0 -72 -44 c-114 -71 -182 -128
-278 -232 -125 -136 -117 -134 -405 -134 -256 0 -295 6 -305 47 -11 42 5 47
160 45 124 -2 146 0 165 15 21 17 16 18 -144 16 -133 -1 -171 -5 -191 -17 -13
-9 -24 -24 -24 -32 0 -12 -5 -14 -17 -9 -10 4 -63 21 -117 36 -55 16 -103 35
-108 42 -11 18 -9 40 6 60 22 28 96 19 289 -38 55 -16 62 -16 128 0 38 10 71
21 74 25 11 17 -17 21 -69 9 -31 -7 -73 -9 -100 -5 -49 8 -54 26 -8 26 15 1
41 7 57 15 l30 13 -50 1 c-27 0 -84 -4 -125 -8 -51 -5 -90 -3 -125 6 l-50 13
60 -6 c63 -5 151 11 247 45 29 11 85 29 123 41 39 12 99 37 134 57 38 20 95
40 138 49 85 16 95 21 181 81 48 34 68 56 83 90 10 25 19 48 19 53 0 11 -115
59 -158 66 -32 5 -46 -1 -107 -40 -53 -36 -78 -46 -110 -46 -69 0 -102 39 -75
90 11 20 92 49 210 75 41 9 95 24 120 35 54 21 60 23 60 11z m-1101 -531 l34
-30 -40 0 c-21 0 -45 -6 -51 -12 -16 -16 -32 4 -32 39 0 41 43 43 89 3z m112
-70 c17 -10 17 -12 -7 -35 -13 -13 -24 -33 -24 -45 0 -25 -2 -25 -50 2 -48 28
-79 76 -59 90 16 10 112 2 140 -12z m4916 -692 c23 -24 53 -69 67 -100 14 -31
34 -62 45 -67 11 -6 51 -15 90 -21 151 -21 382 -184 445 -314 29 -61 106 -302
106 -333 0 -14 -12 -29 -35 -43 -25 -16 -38 -33 -46 -63 -13 -50 -69 -104
-117 -113 -36 -7 -133 -1 -167 11 -11 3 -5 -2 13 -12 l32 -19 -92 -38 c-51
-22 -121 -55 -156 -74 -67 -37 -99 -38 -179 -10 -37 14 -38 16 -18 42 19 25
19 46 0 46 -8 0 -15 -7 -15 -15 0 -19 -31 -35 -69 -35 -36 0 -41 22 -14 53 17
18 17 19 -2 16 -15 -3 -20 4 -27 39 -10 61 -55 138 -107 183 -24 21 -47 39
-52 39 -4 0 -26 34 -48 76 l-41 76 13 66 14 67 15 -30 c9 -16 22 -49 29 -73 7
-23 17 -41 23 -39 22 7 58 121 63 197 4 58 1 91 -15 145 -20 66 -21 74 -6 135
14 59 13 81 -2 132 -4 12 6 23 33 37 21 10 49 31 63 46 l25 26 26 -32 c30 -37
49 -32 49 12 0 16 4 29 8 29 4 0 27 -19 49 -42z m-307 -998 c0 -11 -4 -20 -8
-20 -9 0 -32 -44 -32 -60 0 -20 18 -9 24 15 11 42 29 30 23 -15 -3 -22 -1 -40
4 -40 5 0 9 -16 9 -35 0 -51 -22 -45 -59 15 -27 44 -27 94 0 131 24 34 39 37
39 9z m1981 -373 c60 -45 150 -104 237 -156 88 -53 320 -260 393 -351 60 -74
157 -272 184 -372 14 -51 17 -91 13 -173 -3 -73 -1 -104 6 -102 18 6 45 89 45
140 1 26 5 47 11 47 18 0 171 -185 198 -239 25 -52 27 -66 33 -251 10 -283 27
-314 221 -412 192 -97 287 -186 288 -265 0 -28 -6 -36 -37 -52 -73 -37 -112
-95 -158 -233 -37 -112 -84 -196 -134 -240 -18 -16 -35 -28 -37 -26 -2 2 3 40
11 83 8 44 18 148 21 231 6 126 4 167 -11 237 -21 99 -29 117 -46 100 -8 -8
-7 -38 6 -120 13 -81 15 -137 10 -223 -7 -123 -29 -282 -46 -340 -23 -73 -72
-200 -78 -200 -4 0 -14 40 -24 89 -10 56 -32 123 -58 178 -23 48 -58 138 -79
198 -21 61 -52 148 -69 195 -18 46 -45 151 -61 232 -17 82 -37 165 -46 186 -9
20 -24 60 -34 89 -16 45 -104 186 -200 320 -16 23 -49 77 -71 120 -23 43 -46
83 -51 89 -13 18 -85 236 -93 285 -4 24 -17 69 -29 99 -13 30 -35 89 -51 130
-55 144 -89 185 -378 455 -95 89 -112 118 -89 150 14 21 142 135 150 135 5 0
29 -15 53 -33z m7914 -648 c10 -16 -2 -51 -29 -84 -34 -42 -40 -27 -16 39 21
55 32 66 45 45z m-6669 -1023 c51 -64 94 -128 94 -139 0 -12 -56 20 -95 55
-46 39 -75 96 -75 145 l0 37 18 -23 c9 -13 35 -46 58 -75z m-1752 -5966 c33
-5 83 -10 113 -10 52 0 52 0 48 -27 -30 -179 -37 -300 -31 -477 7 -219 31
-436 49 -451 7 -5 30 -55 51 -110 21 -55 53 -131 71 -170 38 -79 63 -138 75
-175 5 -14 23 -58 40 -99 24 -58 28 -76 18 -83 -10 -6 -10 -8 0 -8 23 0 72
-40 72 -59 0 -33 39 -71 81 -77 44 -7 49 -22 25 -79 -17 -39 -46 -51 -104 -42
-36 6 -50 17 -100 81 -16 22 -26 26 -34 18 -8 -8 -5 -18 11 -39 13 -16 18 -29
12 -31 -6 -2 -11 -8 -11 -14 0 -5 9 -6 20 -3 21 7 25 -1 11 -23 -13 -21 -59
-3 -89 34 -31 39 -60 48 -42 13 7 -11 9 -23 5 -27 -3 -3 5 -12 17 -19 23 -12
22 -12 -8 -13 -19 0 -45 11 -70 30 -44 33 -59 37 -50 13 4 -9 1 -20 -6 -25 -9
-5 -3 -8 15 -8 16 0 26 -4 22 -10 -3 -5 -20 -10 -37 -10 -23 0 -39 10 -67 40
-45 49 -69 52 -67 10 1 -18 6 -30 14 -30 19 0 9 -24 -11 -28 -21 -4 -84 44
-101 77 -7 14 -17 44 -20 65 -9 46 -49 131 -77 161 -27 30 -47 94 -65 209 -17
106 -47 197 -88 268 -41 72 -55 149 -46 263 10 134 29 173 107 213 35 17 65
41 76 59 18 31 30 163 43 476 l6 138 32 -6 c17 -2 58 -9 90 -15z"/>
<path d="M13787 16334 c-13 -13 5 -24 38 -24 44 0 53 16 14 24 -39 8 -44 8
-52 0z"/>
<path d="M3850 15517 c0 -18 71 -40 130 -41 98 -2 113 17 20 26 -41 3 -92 9
-112 13 -21 4 -38 5 -38 2z"/>
<path d="M3837 15415 c-98 -27 -337 -158 -337 -185 0 -12 19 -3 95 45 79 51
165 91 243 115 40 12 72 26 72 31 0 11 -14 10 -73 -6z"/>
<path d="M7670 14347 c0 -96 -17 -163 -54 -212 -14 -18 -26 -36 -26 -39 0 -3
15 -6 33 -6 46 0 149 53 187 96 32 37 32 68 0 39 -16 -15 -17 -14 -13 9 4 19
-3 33 -25 56 -17 16 -38 30 -46 30 -11 0 -16 9 -16 29 0 37 -16 81 -30 81 -6
0 -10 -33 -10 -83z m49 -171 l25 -14 -43 -22 c-24 -12 -45 -19 -48 -17 -6 7
25 67 35 67 4 -1 18 -7 31 -14z"/>
<path d="M7918 14040 c-37 -5 -76 -11 -87 -15 -25 -8 -28 -28 -3 -21 9 2 65 7
124 11 l107 7 6 -39 c10 -59 15 -73 27 -73 13 0 4 75 -13 114 -14 29 -31 31
-161 16z"/>
<path d="M7586 13968 c-2 -7 -14 -47 -26 -88 -25 -85 -43 -123 -76 -163 -33
-39 -22 -51 38 -43 66 9 127 38 168 81 30 31 32 35 13 35 -14 0 -23 8 -28 27
-8 35 -23 53 -51 63 -19 8 -22 14 -17 48 5 38 -12 70 -21 40z m-22 -223 c3 -8
13 -15 23 -15 30 -1 -28 -29 -60 -30 l-28 0 21 22 c11 12 20 25 20 30 0 14 18
9 24 -7z"/>
<path d="M8235 13955 c-5 -2 -27 -6 -47 -10 -21 -3 -38 -10 -38 -15 0 -6 10
-6 26 0 14 6 42 10 62 10 20 0 44 5 52 10 11 7 8 10 -15 9 -16 0 -34 -2 -40
-4z"/>
<path d="M8000 13910 c-22 -22 -25 -36 -11 -45 13 -8 41 23 41 46 0 24 -5 24
-30 -1z"/>
<path d="M8220 13850 c0 -35 -17 -71 -71 -152 -50 -73 -50 -96 0 -41 51 56
103 156 99 190 -4 39 -28 42 -28 3z"/>
<path d="M8004 13700 c16 -109 29 -171 33 -166 6 6 -26 198 -34 206 -3 3 -3
-15 1 -40z"/>
<path d="M8260 13710 c-19 -26 -19 -31 -6 -36 9 -3 27 -3 41 0 18 5 25 13 25
32 0 14 -4 23 -10 19 -5 -3 -10 -1 -10 4 0 20 -19 11 -40 -19z"/>
<path d="M7838 13493 c7 -3 16 -2 19 1 4 3 -2 6 -13 5 -11 0 -14 -3 -6 -6z"/>
<path d="M8635 4646 c-27 -28 -49 -98 -41 -132 10 -40 24 -27 36 33 8 39 21
66 41 86 34 34 35 37 9 37 -12 0 -32 -11 -45 -24z"/>
<path d="M9370 3715 c-7 -8 -10 -18 -7 -21 9 -9 79 9 80 21 3 17 -59 17 -73 0z
m40 1 c0 -2 -7 -7 -16 -10 -8 -3 -12 -2 -9 4 6 10 25 14 25 6z"/>
<path d="M16519 11214 c-31 -23 -41 -25 -101 -21 -51 3 -68 1 -68 -8 0 -18 54
-35 107 -35 36 0 50 6 74 29 16 16 29 37 29 45 0 21 0 21 -41 -10z"/>
</g>
</svg>
